<?xml version="1.0" standalone="no"?>
<!DOCTYPE svg PUBLIC "-//W3C//DTD SVG 20010904//EN"
 "http://www.w3.org/TR/2001/REC-SVG-20010904/DTD/svg10.dtd">
<svg version="1.0" xmlns="http://www.w3.org/2000/svg"
 width="512.000000pt" height="512.000000pt" viewBox="0 0 512.000000 512.000000"
 preserveAspectRatio="xMidYMid meet">

<g transform="translate(0.000000,512.000000) scale(0.100000,-0.100000)"
fill="#000000" stroke="none">
<path d="M1888 5099 c-23 -12 -46 -35 -58 -59 -19 -38 -20 -58 -20 -740 l0
-700 -540 0 c-522 0 -542 -1 -580 -20 -26 -13 -47 -34 -60 -60 -20 -38 -20
-57 -20 -970 0 -913 0 -932 20 -970 13 -26 34 -47 60 -60 38 -19 58 -20 580
-20 l540 0 0 -690 c0 -673 1 -692 20 -730 23 -45 80 -80 130 -80 50 0 107 35
130 80 20 39 20 53 20 2480 0 2427 0 2441 -20 2480 -37 73 -127 99 -202 59z
m-78 -2549 l0 -750 -450 0 -450 0 0 750 0 750 450 0 450 0 0 -750z"/>
<path d="M4288 5099 c-23 -12 -46 -35 -58 -59 -18 -36 -20 -58 -20 -290 l0
-250 -540 0 c-522 0 -542 -1 -580 -20 -26 -13 -47 -34 -60 -60 -20 -39 -20
-55 -20 -1870 0 -1815 0 -1831 20 -1870 13 -26 34 -47 60 -60 38 -19 58 -20
580 -20 l540 0 0 -240 c0 -222 2 -244 20 -280 23 -45 80 -80 130 -80 50 0 107
35 130 80 20 39 20 53 20 2480 0 2427 0 2441 -20 2480 -37 73 -127 99 -202 59z
m-78 -2549 l0 -1650 -450 0 -450 0 0 1650 0 1650 450 0 450 0 0 -1650z"/>
</g>
</svg>
